<?xml version="1.0" encoding="UTF-8" standalone="no"?>
<!-- Created with Inkscape (http://www.inkscape.org/) -->

<svg
   width="79.988922mm"
   height="66.527725mm"
   viewBox="0 0 79.988922 66.527725"
   version="1.1"
   id="svg1"
   xml:space="preserve"
   xmlns="http://www.w3.org/2000/svg"
   xmlns:svg="http://www.w3.org/2000/svg"><defs
     id="defs1" /><g
     id="layer1"
     transform="translate(-113.58597,-11.798545)"><g
       id="g16"
       transform="translate(73.030308,-5.8768625)"><path
         id="text9-7"
         style="font-style:normal;font-variant:normal;font-weight:normal;font-stretch:normal;font-size:63.9639px;font-family:'Noto Serif Display';-inkscape-font-specification:'Noto Serif Display';fill:#3b3937;fill-opacity:1;stroke:none;stroke-width:1;stroke-linejoin:bevel;stroke-dasharray:none;stroke-opacity:1;paint-order:stroke fill markers"
         d="m 79.225351,39.526165 v 0.639459 h 0.831484 c 3.49669,0 5.245291,1.449982 5.245291,4.349676 v 14.545458 h 6.46034 V 40.165624 h 4.349455 c 3.539332,0 6.076419,0.916616 7.611549,2.750246 1.53513,1.790987 2.30292,4.797731 2.30292,9.019344 0,3.011905 -0.40765,5.383217 -1.21556,7.125544 h 5.46491 c 0.38399,-0.442518 0.73947,-0.917869 1.05978,-1.433161 1.02343,-1.620417 1.53478,-3.667206 1.53478,-6.140474 0,-3.83783 -1.36446,-6.780089 -4.09358,-8.826932 -2.68648,-2.089485 -6.80154,-3.134026 -12.345076,-3.134026 z m 6.076775,32.979429 v 7.445534 c 0,3.070264 -1.748601,4.605355 -5.245291,4.605355 h -0.831484 v 0.639981 h 18.61389 v -0.639981 h -0.831994 c -3.49669,0 -5.244781,-1.535091 -5.244781,-4.605355 v -7.445534 z m 15.901864,0 4.43884,7.061754 c 0.76756,1.193992 1.47073,2.175093 2.11037,2.942659 0.68228,0.724924 1.45007,1.278914 2.30292,1.662697 0.85285,0.383783 1.91897,0.6613 3.19825,0.831871 1.32192,0.127927 2.9847,0.191889 4.9889,0.191889 h 0.89584 v -0.639981 h -0.19204 c -1.02342,0 -2.04663,-0.490028 -3.07005,-1.470807 -1.02342,-1.023421 -2.40959,-2.899992 -4.15793,-5.629116 l -3.17322,-4.950966 z"
         transform="scale(1.0117969,0.98834065)" /><text
         xml:space="preserve"
         style="font-size:5.64444px;font-family:'Noto Serif Display';-inkscape-font-specification:'Noto Serif Display';fill:#967f71;fill-opacity:1;stroke:none;stroke-width:1;stroke-linejoin:bevel;stroke-opacity:1;paint-order:stroke fill markers"
         x="52.144207"
         y="68.353989"
         id="text5"><tspan
           id="tspan5"
           style="font-style:normal;font-variant:normal;font-weight:normal;font-stretch:normal;font-size:5.64444px;font-family:Halimun;-inkscape-font-specification:Halimun;fill:#967f71;fill-opacity:1;stroke:none;stroke-width:1;stroke-opacity:1"
           x="52.144207"
           y="68.353989">Olivia <tspan
   style="font-style:normal;font-variant:normal;font-weight:normal;font-stretch:normal;font-size:7.76111px;font-family:'hello honey - Personal Use';-inkscape-font-specification:'hello honey - Personal Use';fill:#967f71;fill-opacity:1;stroke:none;stroke-opacity:1"
   id="tspan10">&amp;</tspan> Ruben</tspan></text><text
         xml:space="preserve"
         style="font-style:normal;font-variant:normal;font-weight:normal;font-stretch:normal;font-size:2.82222px;font-family:'Glacial Indifference';-inkscape-font-specification:'Glacial Indifference';fill:#3b3937;fill-opacity:1;stroke:none;stroke-width:1;stroke-linejoin:bevel;paint-order:stroke fill markers"
         x="48.376583"
         y="75.87249"
         id="text7"><tspan
           id="tspan7"
           style="font-size:2.82222px;fill:#3b3937;fill-opacity:1;stroke-width:1"
           x="48.376583"
           y="75.87249">1   3  -  0   9  -  2   0   2   4</tspan></text><path
         id="text9"
         style="font-style:normal;font-variant:normal;font-weight:normal;font-stretch:normal;font-size:63.9639px;font-family:'Noto Serif Display';-inkscape-font-specification:'Noto Serif Display';fill:#3b3937;fill-opacity:1;stroke:none;stroke-width:1;stroke-linejoin:bevel;stroke-dasharray:none;stroke-opacity:1;paint-order:stroke fill markers"
         d="m 60.295314,17.883922 c -4.520106,0 -8.293936,0.981103 -11.321555,2.942659 -2.984976,1.918913 -5.223733,4.626475 -6.71622,8.123161 -1.449846,3.496687 -2.174728,7.611941 -2.174728,12.34526 0,4.73332 0.724882,8.869721 2.174728,12.409049 0.866212,2.054162 1.991718,3.834006 3.360663,5.356707 h 4.782562 c 0,0 -0.100107,-0.157078 -0.147603,-0.23947 -2.046841,-3.624615 -3.070564,-9.445704 -3.070564,-17.462497 0,-8.016793 1.044923,-13.816213 3.134406,-17.398184 2.089483,-3.624613 5.415563,-5.436704 9.978311,-5.436704 4.520108,0 7.803786,1.812091 9.850627,5.436704 2.046841,3.581971 3.070053,9.381391 3.070053,17.398184 0,8.016793 -1.023212,13.837882 -3.070053,17.462497 -0.04653,0.0824 -0.14505,0.23947 -0.14505,0.23947 h 4.545579 c 1.374658,-1.509821 2.514324,-3.268585 3.403055,-5.292918 1.577773,-3.539328 2.366765,-7.675729 2.366765,-12.409049 0,-4.733319 -0.788992,-8.84805 -2.366765,-12.344737 -1.53513,-3.539328 -3.795087,-6.26856 -6.780063,-8.187473 -2.942333,-1.961556 -6.567253,-2.942659 -10.874148,-2.942659 z"
         transform="scale(1.0117969,0.98834065)" /></g></g></svg>
