<?xml version="1.0" encoding="UTF-8" standalone="no"?>
<!-- Created with Inkscape (http://www.inkscape.org/) -->

<svg
   width="79.988922mm"
   height="66.527725mm"
   viewBox="0 0 79.988922 66.527725"
   version="1.1"
   id="svg1"
   xml:space="preserve"
   xmlns="http://www.w3.org/2000/svg"
   xmlns:svg="http://www.w3.org/2000/svg"><defs
     id="defs1" /><g
     id="layer1"
     transform="translate(-113.58597,-11.798545)"><g
       id="g16"
       transform="translate(73.030308,-5.8768625)"><path
         id="text9-7"
         style="font-style:normal;font-variant:normal;font-weight:normal;font-stretch:normal;font-size:63.9639px;font-family:'Noto Serif Display';-inkscape-font-specification:'Noto Serif Display';fill:#3b3937;fill-opacity:1;stroke:none;stroke-width:1;stroke-linejoin:bevel;stroke-dasharray:none;stroke-opacity:1;paint-order:stroke fill markers"
         d="m 79.225351,39.526165 v 0.639459 h 0.831484 c 3.49669,0 5.245291,1.449982 5.245291,4.349676 v 14.545458 h 6.46034 V 40.165624 h 4.349455 c 3.539332,0 6.076419,0.916616 7.611549,2.750246 1.53513,1.790987 2.30292,4.797731 2.30292,9.019344 0,3.011905 -0.40765,5.383217 -1.21556,7.125544 h 5.46491 c 0.38399,-0.442518 0.73947,-0.917869 1.05978,-1.433161 1.02343,-1.620417 1.53478,-3.667206 1.53478,-6.140474 0,-3.83783 -1.36446,-6.780089 -4.09358,-8.826932 -2.68648,-2.089485 -6.80154,-3.134026 -12.345076,-3.134026 z m 6.076775,32.979429 v 7.445534 c 0,3.070264 -1.748601,4.605355 -5.245291,4.605355 h -0.831484 v 0.639981 h 18.61389 v -0.639981 h -0.831994 c -3.49669,0 -5.244781,-1.535091 -5.244781,-4.605355 v -7.445534 z m 15.901864,0 4.43884,7.061754 c 0.76756,1.193992 1.47073,2.175093 2.11037,2.942659 0.68228,0.724924 1.45007,1.278914 2.30292,1.662697 0.85285,0.383783 1.91897,0.6613 3.19825,0.831871 1.32192,0.127927 2.9847,0.191889 4.9889,0.191889 h 0.89584 v -0.639981 h -0.19204 c -1.02342,0 -2.04663,-0.490028 -3.07005,-1.470807 -1.02342,-1.023421 -2.40959,-2.899992 -4.15793,-5.629116 l -3.17322,-4.950966 z"
         transform="scale(1.0117969,0.98834065)" /><g
         id="text5"
         style="font-size:5.64444px;font-family:'Noto Serif Display';-inkscape-font-specification:'Noto Serif Display';fill:#967f71;stroke-linejoin:bevel;paint-order:stroke fill markers"
         aria-label="Olivia &amp; Ruben"><path
           style="font-family:Halimun;-inkscape-font-specification:Halimun"
           d="m 54.119761,68.478166 q -0.197555,0.0508 -0.395111,0.0508 -0.423333,0.0056 -0.745066,-0.270933 -0.237066,-0.197555 -0.372533,-0.491066 -0.129822,-0.293511 -0.163689,-0.592666 -0.03387,-0.3048 -0.0056,-0.649111 0.03387,-0.349955 0.09031,-0.615244 0.06209,-0.270933 0.141111,-0.530577 0.07902,-0.265289 0.118533,-0.366889 0.03951,-0.107244 0.05645,-0.146755 0.29351,-0.722489 0.846666,-1.247422 0.558799,-0.524933 1.281288,-0.767644 0.728132,-0.248355 1.501421,-0.163688 0.08467,0.0056 0.118533,0.09031 0.03387,0.07902 -0.02258,0.146755 -0.0508,0.06773 -0.135466,0.05645 -0.705555,-0.07338 -1.371599,0.152399 -0.6604,0.225778 -1.174044,0.7112 -0.508,0.479777 -0.773288,1.134532 -0.08467,0.2032 -0.169333,0.479778 -0.08467,0.270933 -0.1524,0.64911 -0.06209,0.378178 -0.06773,0.722489 -0.0056,0.344311 0.1016,0.677333 0.112889,0.333022 0.344311,0.524933 0.180622,0.152399 0.412044,0.197555 0.237067,0.03951 0.4572,-0.03951 0.485422,-0.146756 0.886177,-0.451555 0.09596,-0.07338 0.107244,-0.186267 0.01129,-0.118533 -0.07338,-0.2032 -0.462844,-0.457199 -0.682978,-1.061154 -0.152399,-0.451556 -0.1016,-0.920044 0.0508,-0.468489 0.287867,-0.874888 0.220133,-0.423333 0.491066,-0.688622 0.276578,-0.270933 0.541866,-0.366889 0.270934,-0.1016 0.519289,-0.09031 0.248355,0.0056 0.474133,0.107245 0.321733,0.146755 0.541866,0.457199 0.220133,0.310444 0.282222,0.728133 0.06209,0.412044 -0.112889,0.880533 -0.124177,0.316088 -0.49671,0.829732 -0.372533,0.513644 -0.846666,0.982133 -0.08467,0.09031 -0.07338,0.214489 0.01693,0.118533 0.118533,0.186266 0.389467,0.254 0.807155,0.440267 0.07902,0.03951 0.09031,0.124177 0.01129,0.08467 -0.06209,0.135467 -0.06773,0.0508 -0.146755,0.01129 -0.541866,-0.242711 -1.027288,-0.581378 -0.06773,-0.0508 -0.1524,-0.0508 -0.08467,0 -0.1524,0.05644 -0.513644,0.417688 -1.140177,0.609599 z m 1.862665,-4.837285 q -0.327377,0 -0.654755,0.237067 -0.327377,0.237066 -0.603955,0.75071 -0.208844,0.3556 -0.254,0.762 -0.03951,0.406399 0.09031,0.795866 0.208845,0.575733 0.654755,0.993421 0.07338,0.07338 0.174978,0.07902 0.107244,0 0.186267,-0.07338 0.474133,-0.451556 0.85231,-0.959555 0.378178,-0.508 0.496711,-0.8128 0.141111,-0.389466 0.09596,-0.728132 -0.04516,-0.338667 -0.220133,-0.592667 -0.174978,-0.253999 -0.434622,-0.372533 -0.180622,-0.07902 -0.383822,-0.07902 z m 5.209822,3.222975 q 0.06209,0 0.107244,0.04516 0.04516,0.03951 0.04516,0.1016 0,0.06209 -0.04516,0.107244 -0.07338,0.06773 -0.174977,0.158045 -0.09596,0.09031 -0.383822,0.310444 -0.282222,0.220133 -0.5588,0.383822 -0.270933,0.163688 -0.643466,0.299155 -0.366889,0.129822 -0.688622,0.129822 -0.208844,0 -0.4064,-0.05644 -0.366888,-0.107245 -0.615244,-0.440267 -0.24271,-0.338666 -0.355599,-0.869243 -0.01129,-0.02822 -0.01129,-0.05645 -0.0508,-0.276577 -0.06773,-0.558799 -0.03387,-0.6096 0.06773,-1.286933 0.1016,-0.677333 0.321733,-1.202265 0.220133,-0.524933 0.496711,-0.643467 0.118533,-0.0508 0.248355,-0.01693 0.129822,0.03387 0.208844,0.135467 0.118534,0.124177 0.129822,0.372533 0.01693,0.248355 -0.06209,0.570088 -0.07338,0.321733 -0.180622,0.654755 -0.1016,0.333022 -0.259645,0.699911 -0.158044,0.366888 -0.276577,0.620888 -0.112889,0.254 -0.231422,0.496711 -0.09031,0.186266 -0.03387,0.378177 0.208844,0.7112 0.705555,0.8636 0.158044,0.06773 0.361244,0.04515 0.208844,-0.02822 0.383822,-0.06209 0.180622,-0.03951 0.383822,-0.141111 0.208844,-0.101599 0.366889,-0.186266 0.163688,-0.09031 0.338666,-0.214489 0.180622,-0.129822 0.293511,-0.220133 0.112889,-0.09031 0.225778,-0.186267 0.112888,-0.101599 0.146755,-0.135466 0.03951,-0.03387 0.06209,-0.05644 0.04516,-0.03951 0.1016,-0.03951 z m -3.48262,-0.530577 q 0.0056,0.03951 0.03951,0.05644 0.03387,0.01129 0.05645,-0.02258 0.1524,-0.242711 0.361244,-0.857955 0.214489,-0.620889 0.333022,-1.20791 0.124178,-0.587022 0.02258,-0.694267 -0.0508,-0.05644 -0.09596,-0.05644 -0.01693,0 -0.03387,0.0056 -0.141111,0.06209 -0.338666,0.547511 -0.197555,0.479778 -0.316089,1.134533 -0.112888,0.654755 -0.02822,1.095021 z m 6.886216,0.451555 q 0.06209,0 0.107244,0.04516 0.04516,0.03951 0.04516,0.1016 0,0.06209 -0.03951,0.107244 -0.06773,0.06773 -0.174978,0.169333 -0.107244,0.09596 -0.395111,0.321733 -0.282222,0.220134 -0.564444,0.395111 -0.282222,0.169333 -0.666044,0.3048 -0.383822,0.135467 -0.722488,0.135467 -0.519289,0.0056 -0.931333,-0.3048 -0.158044,-0.112889 -0.225777,-0.299156 -0.06773,-0.186266 -0.06209,-0.34431 0.0056,-0.158045 0.05644,-0.338667 0.0508,-0.180622 0.07902,-0.254 0.03387,-0.07338 0.05645,-0.118533 0.03387,-0.0508 0.09031,-0.06773 0.05644,-0.01693 0.107244,0.01129 0.05644,0.02822 0.07338,0.08467 0.02258,0.05645 -0.0056,0.107245 -0.01129,0.02822 -0.03951,0.08467 -0.02258,0.0508 -0.06773,0.186267 -0.03951,0.135466 -0.0508,0.254 -0.01129,0.118533 0.02258,0.253999 0.03951,0.129823 0.141111,0.2032 0.248355,0.180622 0.553155,0.225778 0.3048,0.03951 0.581377,-0.02822 0.282222,-0.06773 0.575733,-0.208845 0.299155,-0.146755 0.519289,-0.299155 0.225777,-0.1524 0.428977,-0.321733 0.208844,-0.169333 0.293511,-0.248355 0.08467,-0.08467 0.112889,-0.112889 0.04516,-0.04516 0.1016,-0.04516 z m -3.499553,-0.400755 q -0.112889,0 -0.141111,-0.112889 -0.02822,-0.112889 0.07338,-0.169333 0.158044,-0.07902 0.282222,-0.208844 0.04516,-0.04516 0.101599,-0.04516 0.06209,0 0.107245,0.04516 0.04516,0.03951 0.04516,0.1016 0.0056,0.05644 -0.03951,0.1016 -0.158044,0.163688 -0.355599,0.265288 -0.03387,0.02258 -0.07338,0.02258 z m 8.302973,0.491066 q 0.06209,0 0.1016,0.04516 0.04515,0.04516 0.04515,0.107244 0,0.06209 -0.03951,0.107245 -0.417688,0.417688 -1.111955,0.733777 -0.694266,0.310444 -1.332087,0.293511 -0.524933,0.01129 -0.931333,-0.316089 -0.03387,-0.03951 -0.09031,-0.03387 -0.0508,0 -0.08467,0.03951 -0.180622,0.231423 -0.423333,0.395111 -0.1524,0.1016 -0.338666,0.107245 -0.141111,0 -0.265289,-0.07902 -0.0056,-0.0056 -0.01693,-0.01693 -0.129822,-0.118533 -0.220133,-0.310444 -0.08467,-0.197555 -0.118534,-0.372533 -0.02822,-0.174978 -0.03951,-0.366889 -0.01129,-0.197555 -0.0056,-0.276577 0.0056,-0.07902 0.01129,-0.129822 0.0056,-0.06209 0.0508,-0.09596 0.0508,-0.03951 0.107244,-0.03387 0.06209,0.0056 0.1016,0.05645 0.03951,0.04515 0.03387,0.1016 -0.02822,0.282222 0.02258,0.64911 0.05644,0.366889 0.242711,0.553156 0.163689,0.08467 0.417689,-0.141111 0.186266,-0.169334 0.321733,-0.383822 0.01129,-0.02822 0,-0.05644 -0.107244,-0.220133 -0.124178,-0.440266 -0.01693,-0.220133 0.07902,-0.372533 0.07338,-0.107245 0.197555,-0.135467 0.124178,-0.02822 0.237066,0.03387 0.07902,0.03387 0.124178,0.107244 0.0508,0.06773 0.0508,0.1524 -0.01129,0.349955 -0.191911,0.654755 -0.0056,0.02822 0,0.05644 0.01693,0.01129 0.02822,0.02822 0.344311,0.349955 0.829733,0.327377 0.5588,0.01129 1.202266,-0.270933 0.643466,-0.287866 1.021643,-0.671688 0.04516,-0.04516 0.107245,-0.04516 z m -3.352798,0.214489 q 0.06209,-0.135467 0.05645,-0.282222 -0.01129,-0.02258 -0.03387,-0.02258 -0.02258,0 -0.03387,0.01693 -0.05644,0.141111 -0.01129,0.287866 0.0056,0.0056 0.01129,0.0056 0.01129,0 0.01129,-0.0056 z m 6.756396,-0.3048 q 0.06209,0 0.107244,0.04516 0.04516,0.03951 0.04516,0.1016 0,0.06209 -0.03951,0.107244 -0.06773,0.06773 -0.174977,0.169333 -0.107245,0.09596 -0.395111,0.321733 -0.282222,0.220134 -0.564444,0.395111 -0.282222,0.169333 -0.666044,0.3048 -0.383822,0.135467 -0.722488,0.135467 -0.519289,0.0056 -0.931333,-0.3048 -0.158044,-0.112889 -0.225778,-0.299156 -0.06773,-0.186266 -0.06209,-0.34431 0.0056,-0.158045 0.05644,-0.338667 0.0508,-0.180622 0.07902,-0.254 0.03387,-0.07338 0.05644,-0.118533 0.03387,-0.0508 0.09031,-0.06773 0.05644,-0.01693 0.107244,0.01129 0.05644,0.02822 0.07338,0.08467 0.02258,0.05645 -0.0056,0.107245 -0.01129,0.02822 -0.03951,0.08467 -0.02258,0.0508 -0.06773,0.186267 -0.03951,0.135466 -0.0508,0.254 -0.01129,0.118533 0.02258,0.253999 0.03951,0.129823 0.141111,0.2032 0.248355,0.180622 0.553155,0.225778 0.3048,0.03951 0.581377,-0.02822 0.282222,-0.06773 0.575733,-0.208845 0.299155,-0.146755 0.519289,-0.299155 0.225777,-0.1524 0.428977,-0.321733 0.208844,-0.169333 0.293511,-0.248355 0.08467,-0.08467 0.112889,-0.112889 0.04515,-0.04516 0.1016,-0.04516 z m -3.499553,-0.400755 q -0.112889,0 -0.141111,-0.112889 -0.02822,-0.112889 0.07338,-0.169333 0.158045,-0.07902 0.282222,-0.208844 0.04516,-0.04516 0.1016,-0.04516 0.06209,0 0.107245,0.04516 0.04516,0.03951 0.04516,0.1016 0.0056,0.05644 -0.03951,0.1016 -0.158044,0.163688 -0.3556,0.265288 -0.03387,0.02258 -0.07338,0.02258 z m 7.806258,0.553155 q 0.06209,0 0.1016,0.04516 0.03951,0.04516 0.03387,0.107244 0,0.06209 -0.04516,0.1016 -0.0508,0.04516 -0.135466,0.118533 -0.07902,0.06773 -0.293511,0.225778 -0.214489,0.158044 -0.434622,0.287866 -0.220133,0.129822 -0.519289,0.259645 -0.299155,0.124177 -0.575733,0.174977 -0.276577,0.0508 -0.581377,0.01129 -0.3048,-0.04516 -0.558799,-0.208844 -0.237067,-0.1524 -0.378178,-0.395111 -0.03951,-0.06773 -0.124178,-0.07338 -0.07902,-0.0056 -0.124177,0.06209 -0.197556,0.3048 -0.434622,0.513644 -0.231422,0.208844 -0.428978,0.214489 h -0.0056 q -0.1016,-0.0056 -0.186267,-0.06209 -0.09031,-0.06209 -0.129822,-0.158044 -0.169333,-0.423333 0.0508,-0.824089 0.186267,-0.389466 0.519289,-0.660399 0.338666,-0.276578 0.761999,-0.378178 0.08467,-0.02258 0.141111,0.03951 0.06209,0.06209 0.03387,0.146755 -0.02258,0.07902 -0.107245,0.1016 -0.355599,0.08467 -0.637821,0.316089 -0.282222,0.225777 -0.440267,0.558799 -0.158044,0.270933 -0.05644,0.564444 0.03387,0.05644 0.0508,0.05644 0.09595,0.06209 0.372533,-0.349956 0.276577,-0.412044 0.496711,-0.891821 0.04516,-0.1016 0.158044,-0.08467 0.107244,0.01693 0.124178,0.124178 0.0056,0.02822 0.01129,0.07902 0.01129,0.04515 0.0508,0.174978 0.03951,0.124177 0.09031,0.237066 0.0508,0.112889 0.146755,0.242711 0.09596,0.124178 0.208844,0.197555 0.214489,0.141111 0.479778,0.169334 0.270933,0.02822 0.513644,-0.02822 0.248355,-0.05644 0.519288,-0.174977 0.270933,-0.124178 0.468489,-0.248356 0.197555,-0.124177 0.389466,-0.265288 0.191911,-0.141111 0.259644,-0.197556 0.07338,-0.06209 0.107245,-0.09595 0.04515,-0.03951 0.107244,-0.03387 z"
           id="path1" /><path
           style="font-size:7.76111px;font-family:'hello honey - Personal Use';-inkscape-font-specification:'hello honey - Personal Use'"
           d="m 80.784805,68.687716 c 1.016706,0 1.389239,-0.682977 1.389239,-1.311627 0,-0.457906 -0.194028,-0.892528 -0.481189,-1.016706 0.287161,-0.08537 0.566561,-0.194027 0.760589,-0.442383 0.108655,-0.131939 0.155222,-0.287161 0.155222,-0.434622 0,-0.310444 -0.201789,-0.597605 -0.504472,-0.597605 -0.108656,0 -0.310444,0.03104 -0.310444,0.170744 0.0078,0.06209 0.05433,0.09313 0.100894,0.09313 0.100894,-0.0078 0.100894,-0.1397 0.1397,-0.1397 l 0.06985,-0.0078 c 0.240594,0 0.388055,0.240595 0.388055,0.48895 0,0.442383 -0.473427,0.667456 -0.915811,0.783872 -0.395816,0.116417 -0.892527,0.256117 -0.892527,0.721783 0,0.07761 0.0078,0.162984 0.03881,0.256117 0.01552,0.03104 0.05433,0.06985 0.09313,0.06985 0.05433,-0.0078 0.100894,-0.04657 0.100894,-0.108655 -0.01552,-0.07761 -0.108655,-0.08537 -0.116417,-0.131939 v -0.06985 c 0,-0.310445 0.263878,-0.450145 0.551039,-0.551039 0.05433,-0.01552 0.100895,-0.02328 0.147461,-0.02328 0.4191,0 0.5588,0.582083 0.5588,0.954616 0,0.729544 -0.504472,1.18745 -1.272822,1.18745 l -0.116416,-0.0078 c -0.62865,-0.03881 -0.845961,-0.729545 -0.845961,-1.288345 l 0.0078,-0.194027 c 0.06209,-0.574322 0.256116,-1.280583 0.939094,-1.280583 h 0.03104 c 0.03881,0 0.06209,-0.03105 0.06209,-0.05433 0,-0.02328 -0.0078,-0.04657 -0.0388,-0.06209 -0.395817,-0.170744 -0.566561,-0.481189 -0.566561,-0.884767 0.01552,-0.496711 0.225072,-0.923572 0.644172,-0.923572 0.256117,0 0.566561,0.232834 0.582083,0.527756 0,0.06209 -0.108655,0.0388 -0.124178,0.186266 0,0.05433 0.03881,0.100895 0.116417,0.100895 0.08537,0 0.108656,-0.04657 0.116417,-0.116417 l 0.0078,-0.09313 c 0,-0.434622 -0.333728,-0.721783 -0.791633,-0.729544 -0.574323,0 -0.970139,0.372533 -0.9779,0.962377 0,0.473428 0.240594,0.791633 0.690739,0.985661 -0.799395,0.108656 -1.164167,0.714022 -1.18745,1.559983 0,0.807156 0.543277,1.412522 1.435805,1.420283 z"
           id="path2" /><path
           style="font-family:Halimun;-inkscape-font-specification:Halimun"
           d="m 91.528283,64.024703 q -0.270933,0.4572 -0.716844,0.857955 -0.440267,0.400755 -0.942622,0.677333 -0.49671,0.276577 -0.999066,0.457199 -0.502355,0.180623 -0.948266,0.248356 -0.05644,0.0056 -0.07902,0.05644 -0.02258,0.04516 0.0056,0.09596 0.169333,0.270933 0.304799,0.474133 0.141111,0.203199 0.344311,0.451555 0.208845,0.242711 0.400756,0.400755 0.191911,0.158044 0.434621,0.270933 0.242711,0.107245 0.485422,0.107245 0.04516,0 0.09596,-0.0056 0.208844,-0.01693 0.395111,-0.124178 0.186266,-0.107244 0.287866,-0.225777 0.107244,-0.118533 0.191911,-0.270933 0.09031,-0.1524 0.112889,-0.208845 0.02258,-0.06209 0.03387,-0.101599 0.01693,-0.05645 0.06773,-0.08467 0.05644,-0.03387 0.112889,-0.01129 0.06209,0.01693 0.09031,0.07338 0.02822,0.0508 0.01129,0.107244 -0.01693,0.0508 -0.04515,0.129822 -0.02822,0.07902 -0.135467,0.265289 -0.1016,0.180622 -0.237066,0.327377 -0.129822,0.141111 -0.361244,0.270934 -0.231422,0.124177 -0.502355,0.152399 -0.06209,0 -0.124178,0 -0.265289,0 -0.530578,-0.101599 -0.259644,-0.1016 -0.468488,-0.259645 -0.208844,-0.158044 -0.428978,-0.39511 -0.214488,-0.237067 -0.366888,-0.445911 -0.1524,-0.214489 -0.321733,-0.485422 -0.01129,-0.01693 -0.03387,-0.01129 -0.02258,0 -0.02258,0.02258 -0.158044,0.705555 -0.34431,1.100666 -0.180623,0.39511 -0.4572,0.468488 -0.08467,0.02258 -0.146756,-0.03387 -0.06209,-0.06209 -0.03951,-0.146755 0.02258,-0.08467 0.107245,-0.1016 0.197555,-0.05644 0.349955,-0.502355 0.158044,-0.451555 0.310444,-1.185332 0.0056,-0.03951 -0.02822,-0.03951 -0.197555,0 -0.389466,-0.07338 -0.163689,-0.05644 -0.248356,-0.214489 -0.07902,-0.158044 -0.02258,-0.327378 0.07338,-0.265288 0.24271,-0.287866 0.118534,-0.01693 0.231422,0.08467 0.112889,0.1016 0.265289,0.333022 0.02258,0.02822 0.03387,0.02258 0.01693,-0.01129 0.02822,-0.03387 0.05644,-0.293511 0.08467,-0.451556 0.03387,-0.158044 0.09031,-0.412044 0.05644,-0.253999 0.09596,-0.39511 0.04516,-0.141111 0.107245,-0.333022 0.06209,-0.197556 0.118533,-0.3048 0.06209,-0.112889 0.135466,-0.225778 0.07338,-0.118533 0.158045,-0.180622 0.09031,-0.06209 0.186266,-0.08467 0.05645,-0.01693 0.107245,0.01693 0.05644,0.03387 0.06773,0.09595 0.01693,0.05645 -0.01693,0.107245 -0.02822,0.0508 -0.09031,0.06773 -0.06209,0.01693 -0.124177,0.07902 -0.05644,0.05644 -0.112889,0.169333 -0.05644,0.112889 -0.107244,0.231422 -0.04516,0.112889 -0.09596,0.299156 -0.0508,0.186266 -0.09031,0.321733 -0.03387,0.135466 -0.08467,0.366888 -0.04515,0.225778 -0.07338,0.3556 -0.02822,0.124178 -0.07338,0.361244 0,0.01129 -0.0056,0.02258 0,0.0056 -0.0056,0.01693 0,0.01693 0.01129,0.03387 0.01129,0.01693 0.02258,0.01693 0.406399,-0.06209 0.874888,-0.225777 0.474133,-0.169333 0.959555,-0.423333 0.485422,-0.259645 0.914399,-0.637822 0.434622,-0.383822 0.682977,-0.818444 0.524933,-0.886177 0.124178,-1.281288 -0.248355,-0.242711 -0.818444,-0.299155 -0.570088,-0.06209 -1.264354,0.0508 -0.688622,0.107244 -1.46191,0.383822 -0.773289,0.270933 -1.405466,0.654755 -0.112889,0.06773 -0.220133,0.141111 -0.107244,0.07338 -0.237067,0.174978 -0.129822,0.101599 -0.237066,0.203199 -0.107244,0.09596 -0.220133,0.220134 -0.107245,0.124177 -0.174978,0.24271 -0.06773,0.118534 -0.124178,0.259645 -0.0508,0.141111 -0.0508,0.276577 0.0056,0.135467 0.04516,0.282222 0.01693,0.06209 -0.01129,0.118534 -0.02822,0.0508 -0.09031,0.06773 -0.05644,0.01693 -0.112889,-0.01129 -0.0508,-0.02822 -0.07338,-0.08467 -0.163689,-0.536222 0.186266,-1.089377 0.349955,-0.553155 1.168399,-1.05551 0.626533,-0.383822 1.422399,-0.666044 0.801511,-0.282222 1.546577,-0.4064 0.75071,-0.124177 1.394176,-0.04515 0.643467,0.07338 0.948266,0.372533 0.107245,0.1016 0.169334,0.242711 0.06209,0.135466 0.08467,0.333022 0.02258,0.191911 -0.06209,0.468488 -0.07902,0.276578 -0.265288,0.598311 z m -4.408308,1.930399 q 0.02822,0.01129 0.06209,0.02258 0.01693,0 0.02258,-0.0056 0.01129,-0.0056 0,-0.02822 -0.07338,-0.107245 -0.152399,-0.2032 -0.02258,-0.02822 -0.03387,0.01693 -0.0508,0.135467 0.1016,0.197556 z m 9.206077,0.773288 q 0.06209,-0.0056 0.107245,0.03951 0.04516,0.03951 0.04516,0.1016 0,0.06209 -0.03951,0.107244 -0.304799,0.316089 -0.739421,0.632178 -0.428978,0.310444 -0.976489,0.54751 -0.54751,0.231422 -0.987777,0.231422 h -0.01129 q -0.491067,0.01693 -0.824089,-0.338666 -0.141111,-0.158044 -0.169333,-0.366889 -0.01129,-0.07902 -0.09031,-0.1016 -0.07338,-0.02258 -0.129822,0.03387 -0.671688,0.699911 -1.05551,0.468489 -0.135467,-0.07902 -0.158045,-0.254 -0.02822,-0.180622 0.04516,-0.400756 0.07338,-0.220133 0.1524,-0.383821 0.07338,-0.163689 0.163688,-0.327378 0.03387,-0.0508 0.09031,-0.06209 0.05644,-0.01693 0.107244,0.01129 0.0508,0.02822 0.06773,0.08467 0.01693,0.05644 -0.0056,0.112888 -0.135467,0.231422 -0.225778,0.4572 -0.08467,0.225778 -0.1016,0.349955 -0.01129,0.118534 0.01693,0.158045 0.141111,0.08467 0.524932,-0.270933 0.389467,-0.3556 0.728133,-0.852311 0.03387,-0.0508 0.08467,-0.06209 0.05644,-0.01129 0.107244,0.01693 0.0508,0.02258 0.06773,0.07338 0.02258,0.0508 0.0056,0.1016 -0.04516,0.129822 -0.08467,0.3048 -0.03387,0.169333 -0.02822,0.389466 0.01129,0.220134 0.1016,0.321733 0.254,0.254 0.6096,0.242711 h 0.01129 q 0.395111,0 0.897466,-0.225777 0.508,-0.225778 0.908755,-0.513644 0.4064,-0.293511 0.677333,-0.581378 0.04516,-0.04515 0.107244,-0.04515 z m 4.058348,0.163689 q 0.0621,0 0.1016,0.04516 0.0452,0.04516 0.0395,0.107245 0,0.06209 -0.0451,0.101599 -0.29351,0.282222 -0.654757,0.434622 -0.361244,0.146756 -0.733777,0.158045 -0.366889,0.01129 -0.722489,-0.05644 -0.349955,-0.07338 -0.694266,-0.220133 -0.08467,-0.03387 -0.169333,0.0056 -0.08467,0.03951 -0.112889,0.129822 -0.0508,0.191911 -0.1524,0.361244 -0.101599,0.191911 -0.287866,0.310444 -0.186267,0.118533 -0.4064,0.124178 -0.07902,0 -0.1524,-0.01129 l -0.05644,-0.02258 q -0.479777,-0.259644 -0.293511,-1.394177 0.1016,-0.626532 0.389467,-1.41111 0.287866,-0.790221 0.654755,-1.394176 0.372533,-0.6096 0.660399,-0.654755 0.118533,-0.03387 0.225778,0.01693 0.112888,0.0508 0.163688,0.158044 0.107245,0.225778 -0.08467,0.767644 -0.191911,0.541866 -0.524933,1.111955 -0.333022,0.564444 -0.677333,1.05551 -0.344311,0.485422 -0.536222,0.6604 -0.0056,0.0056 -0.01129,0.01129 -0.02822,0.248356 0.0056,0.496711 0.02822,0.186267 0.197555,0.254 0.174978,0.06773 0.321733,-0.04516 0.09596,-0.07902 0.163689,-0.19191 0.112889,-0.191911 0.146756,-0.412045 0.02258,-0.186266 -0.129823,-0.282222 -0.08467,-0.05644 -0.158044,-0.112888 -0.06773,-0.0508 -0.05644,-0.135467 0.01129,-0.09031 0.09596,-0.118533 0.112889,-0.0508 0.231422,-0.02258 0.124178,0.02822 0.2032,0.124178 0.05644,0.07338 0.08467,0.163688 0.327377,0.186267 0.677332,0.299156 0.3556,0.107244 0.739422,0.141111 0.389467,0.02822 0.767644,-0.09596 0.383822,-0.129822 0.682983,-0.417688 0.0452,-0.03951 0.10724,-0.03951 z m -2.590795,-3.093154 q -0.146756,0.02258 -0.4064,0.428978 -0.254,0.400755 -0.530577,1.049866 -0.270934,0.643466 -0.423333,1.264354 -0.01129,0.03951 0.02258,0.05644 0.03951,0.01693 0.06209,-0.01693 0.412044,-0.570088 0.756355,-1.179688 0.270933,-0.474133 0.417689,-0.835377 0.1524,-0.366888 0.180622,-0.530577 0.02822,-0.163689 0,-0.225778 -0.0056,-0.01693 -0.03951,-0.01693 -0.02258,0 -0.03951,0.0056 z m 7.123285,3.047998 q 0.0621,0.0056 0.1016,0.05644 0.0395,0.04515 0.0339,0.107244 -0.006,0.06209 -0.0564,0.1016 -0.0847,0.06773 -0.20885,0.158044 -0.12417,0.09031 -0.47977,0.3048 -0.3556,0.208844 -0.7112,0.366889 -0.34996,0.158044 -0.84667,0.287866 -0.49671,0.129822 -0.94826,0.129822 -0.57574,0.0056 -1.10631,-0.208844 -0.16934,-0.06773 -0.28787,-0.158045 -0.11289,-0.09596 -0.16933,-0.180622 -0.0564,-0.09031 -0.079,-0.186266 -0.0282,-0.1016 -0.0226,-0.174978 0,-0.07338 0.0169,-0.146755 0.0621,-0.265289 0.29351,-0.524933 0.23142,-0.259644 0.51364,-0.4064 0.28787,-0.146755 0.51365,-0.135466 0.1524,0 0.25964,0.107244 0.11289,0.107244 0.12418,0.265289 0.0282,0.270933 -0.3048,0.491066 -0.47978,0.299155 -1.04987,0.265289 -0.0282,-0.0056 -0.0508,0.01129 -0.0226,0.01693 -0.0169,0.04516 -0.0395,0.287866 0.37253,0.451555 0.36689,0.1524 0.79023,0.180622 0.42333,0.02258 0.79022,-0.04516 0.36689,-0.06773 0.75071,-0.208844 0.38382,-0.141111 0.65475,-0.282222 0.27658,-0.146756 0.53058,-0.3048 0.25964,-0.163689 0.34996,-0.231422 0.0959,-0.06773 0.13546,-0.1016 0.0508,-0.03951 0.10725,-0.03387 z m -4.28413,0.174978 q -0.0734,0.1016 0.0621,0.09031 0.23706,-0.01693 0.60395,-0.2032 0.0564,-0.03387 0.096,-0.05644 0.17497,-0.118534 0.16368,-0.214489 -0.006,-0.06209 -0.0282,-0.07902 -0.0226,-0.02258 -0.0734,-0.02822 -0.18062,-0.01129 -0.42333,0.129823 -0.23706,0.141111 -0.40075,0.361244 z M 109.63,66.909012 q 0.0621,0 0.10724,0.03951 0.0452,0.03951 0.0452,0.1016 0.006,0.06209 -0.0395,0.107244 -0.0339,0.03951 -0.096,0.1016 -0.0621,0.06209 -0.23142,0.2032 -0.16933,0.141111 -0.34431,0.265289 -0.17498,0.124177 -0.42898,0.254 -0.24835,0.124177 -0.49106,0.197555 -0.24271,0.06773 -0.53058,0.06209 -0.28222,-0.0056 -0.53622,-0.107245 -0.44027,-0.220133 -0.68298,-0.64911 0,-0.0056 -0.0282,-0.04516 -0.0226,-0.03951 -0.0452,-0.06209 -0.0169,-0.02822 -0.0508,-0.06209 -0.0282,-0.03387 -0.0677,-0.0508 -0.0339,-0.01693 -0.0734,-0.01129 -0.45155,0.01129 -1.27564,0.976488 -0.0734,0.08467 -0.17498,0.03387 -0.10724,-0.0508 -0.079,-0.163689 l 0.28222,-1.241777 q 0.0113,-0.05644 0.0621,-0.09031 0.0564,-0.03387 0.11289,-0.01693 0.0621,0.01129 0.0903,0.06773 0.0339,0.0508 0.0226,0.107244 l -0.12983,0.5588 q -0.006,0.02822 0.0226,0.04515 0.0282,0.01129 0.0508,-0.01129 0.62653,-0.592667 1.05551,-0.564445 0.18062,0.01129 0.3048,0.146756 0.096,0.1016 0.16934,0.220133 0.19191,0.349955 0.54186,0.536222 0.17498,0.07338 0.36689,0.08467 0.19191,0.01129 0.36124,-0.01693 0.17498,-0.03387 0.3556,-0.1016 0.18063,-0.07338 0.32738,-0.158044 0.1524,-0.08467 0.29916,-0.186267 0.1524,-0.1016 0.254,-0.186266 0.1016,-0.08467 0.19755,-0.169333 0.096,-0.08467 0.12418,-0.118534 0.0339,-0.03387 0.0508,-0.0508 0.0395,-0.04515 0.1016,-0.04515 z"
           id="path3" /></g><path
         d="m 48.794272,75.87249 h 0.197555 v -1.941687 l -0.474133,0.0508 v 0.172156 h 0.276578 z m 3.683003,-0.01976 c 0.07902,-0.03387 0.146755,-0.07902 0.206022,-0.135466 0.127,-0.124178 0.191911,-0.273756 0.191911,-0.454378 0,-0.177799 -0.06491,-0.330199 -0.194734,-0.454377 -0.121355,-0.115711 -0.273755,-0.180622 -0.457199,-0.191911 l -0.08467,0.0508 0.601133,-0.7112 h -1.032933 v 0.197556 h 0.632178 l -0.581378,0.677333 0.149578,0.121355 c 0.09031,-0.09031 0.197556,-0.135466 0.321733,-0.135466 0.124178,0 0.2286,0.04233 0.316089,0.129822 0.08749,0.08749 0.132644,0.191911 0.132644,0.316088 0,0.118534 -0.04516,0.222956 -0.135466,0.310445 -0.03951,0.03951 -0.08749,0.07055 -0.141111,0.09313 -0.05644,0.02258 -0.121356,0.03669 -0.197556,0.03669 -0.07902,0 -0.155222,-0.02822 -0.231422,-0.07902 -0.07902,-0.0508 -0.132644,-0.121356 -0.163689,-0.208845 l -0.191911,0.06491 c 0.04233,0.124178 0.121356,0.225778 0.237067,0.3048 0.05362,0.03669 0.112889,0.06491 0.1778,0.08749 0.06209,0.01976 0.132644,0.03104 0.211666,0.03104 0.07902,0 0.155222,-0.01693 0.234245,-0.0508 z m 3.039535,-0.527755 v -0.160866 h -0.945444 v 0.160866 z m 2.571045,-1.148643 c 0.09031,0.05644 0.155222,0.143933 0.200377,0.262466 0.05362,0.1524 0.08185,0.310444 0.08185,0.479778 0,0.03951 -0.0028,0.08749 -0.0085,0.141111 -0.02258,0.208844 -0.0762,0.372533 -0.163689,0.488244 -0.07338,0.1016 -0.160866,0.149577 -0.265288,0.149577 -0.118534,0 -0.214489,-0.04798 -0.287867,-0.146755 -0.03387,-0.04516 -0.05927,-0.09313 -0.08184,-0.149578 -0.02258,-0.05644 -0.03669,-0.112889 -0.04798,-0.172155 -0.01129,-0.05644 -0.01976,-0.112889 -0.0254,-0.169333 -0.0056,-0.05362 -0.0056,-0.115711 -0.0056,-0.186267 0,-0.07055 0.0085,-0.160867 0.03104,-0.265289 0.01129,-0.05644 0.0254,-0.115711 0.04798,-0.172155 0.01975,-0.05644 0.04516,-0.107244 0.07902,-0.1524 0.03387,-0.04516 0.07338,-0.07902 0.118533,-0.107244 0.04516,-0.02822 0.1016,-0.04233 0.163689,-0.04233 0.06209,0 0.118533,0.01411 0.163689,0.04233 z m -0.155222,1.721554 c 0.228599,0 0.397933,-0.110067 0.513644,-0.333022 0.09031,-0.1778 0.135466,-0.395111 0.135466,-0.654755 0,-0.256822 -0.04516,-0.474133 -0.135466,-0.651933 -0.115711,-0.222955 -0.285045,-0.335844 -0.513644,-0.335844 -0.225778,0 -0.395111,0.112889 -0.510822,0.335844 -0.09031,0.1778 -0.138289,0.395111 -0.138289,0.651933 0,0.259644 0.04798,0.476955 0.138289,0.654755 0.115711,0.222955 0.285044,0.333022 0.510822,0.333022 z m 3.795888,-0.897466 c -0.121356,0 -0.225778,-0.04233 -0.313267,-0.132644 -0.08467,-0.08749 -0.127,-0.191911 -0.127,-0.313267 0,-0.118533 0.04233,-0.220133 0.129822,-0.307622 0.08467,-0.08467 0.189089,-0.127 0.313267,-0.127 0.118533,0 0.225778,0.04516 0.313266,0.132645 0.09031,0.08749 0.132645,0.189088 0.132645,0.310444 0,0.118533 -0.04233,0.222955 -0.132645,0.307622 -0.03951,0.03951 -0.08749,0.07338 -0.141111,0.09595 -0.05644,0.02258 -0.112888,0.03387 -0.174977,0.03387 z m -0.640644,-0.4318 c 0,0.186267 0.06491,0.338667 0.197555,0.4572 0.121356,0.112889 0.276578,0.172155 0.471311,0.1778 l 0.05644,-0.03669 -0.587021,0.705555 h 0.259644 l 0.75071,-0.905933 c 0.09596,-0.112889 0.143934,-0.248355 0.143934,-0.403577 0,-0.1778 -0.06491,-0.327378 -0.189089,-0.451555 -0.129822,-0.124178 -0.282222,-0.189089 -0.4572,-0.189089 -0.180622,0 -0.333022,0.06209 -0.4572,0.186266 -0.05927,0.05927 -0.104422,0.127 -0.138288,0.2032 -0.03387,0.07902 -0.0508,0.163689 -0.0508,0.256822 z m 3.945464,0.756355 v -0.160866 h -0.945444 v 0.160866 z m 1.806223,0.547511 h 1.351843 v -0.197555 h -0.874888 l 0.668866,-0.663222 c 0.124178,-0.124178 0.186267,-0.273756 0.186267,-0.448733 0,-0.1778 -0.06491,-0.327378 -0.191911,-0.451555 -0.129822,-0.124178 -0.282222,-0.189089 -0.460022,-0.189089 -0.183444,0 -0.338666,0.06773 -0.468488,0.197555 -0.127,0.129822 -0.186267,0.287867 -0.180623,0.474133 h 0.200378 c -0.0085,-0.121355 0.03104,-0.2286 0.121356,-0.324555 0.08749,-0.09596 0.194733,-0.141111 0.31891,-0.141111 0.124178,0 0.2286,0.04233 0.316089,0.127 0.08749,0.08467 0.129822,0.186266 0.129822,0.307622 0,0.121355 -0.04233,0.225777 -0.127,0.310444 z m 4.786489,-1.696154 c 0.09031,0.05644 0.155222,0.143933 0.200378,0.262466 0.05362,0.1524 0.08184,0.310444 0.08184,0.479778 0,0.03951 -0.0028,0.08749 -0.0085,0.141111 -0.02258,0.208844 -0.0762,0.372533 -0.163688,0.488244 -0.07338,0.1016 -0.160867,0.149577 -0.265289,0.149577 -0.118533,0 -0.214489,-0.04798 -0.287866,-0.146755 -0.03387,-0.04516 -0.05927,-0.09313 -0.08185,-0.149578 -0.02258,-0.05644 -0.03669,-0.112889 -0.04798,-0.172155 -0.01129,-0.05644 -0.01975,-0.112889 -0.0254,-0.169333 -0.0056,-0.05362 -0.0056,-0.115711 -0.0056,-0.186267 0,-0.07055 0.0085,-0.160867 0.03104,-0.265289 0.01129,-0.05644 0.0254,-0.115711 0.04798,-0.172155 0.01976,-0.05644 0.04516,-0.107244 0.07902,-0.1524 0.03387,-0.04516 0.07338,-0.07902 0.118534,-0.107244 0.04515,-0.02822 0.1016,-0.04233 0.163688,-0.04233 0.06209,0 0.118534,0.01411 0.163689,0.04233 z m -0.155222,1.721554 c 0.2286,0 0.397933,-0.110067 0.513644,-0.333022 0.09031,-0.1778 0.135467,-0.395111 0.135467,-0.654755 0,-0.256822 -0.04516,-0.474133 -0.135467,-0.651933 -0.115711,-0.222955 -0.285044,-0.335844 -0.513644,-0.335844 -0.225778,0 -0.395111,0.112889 -0.510822,0.335844 -0.09031,0.1778 -0.138289,0.395111 -0.138289,0.651933 0,0.259644 0.04798,0.476955 0.138289,0.654755 0.115711,0.222955 0.285044,0.333022 0.510822,0.333022 z m 3.256844,-0.0254 h 1.351844 V 75.674935 H 75.20463 l 0.668866,-0.663222 c 0.124178,-0.124178 0.186267,-0.273756 0.186267,-0.448733 0,-0.1778 -0.06491,-0.327378 -0.191911,-0.451555 -0.129822,-0.124178 -0.282222,-0.189089 -0.460022,-0.189089 -0.183444,0 -0.338666,0.06773 -0.468488,0.197555 -0.127,0.129822 -0.186267,0.287867 -0.180622,0.474133 h 0.200377 c -0.0085,-0.121355 0.03105,-0.2286 0.121356,-0.324555 0.08749,-0.09596 0.194733,-0.141111 0.318911,-0.141111 0.124177,0 0.228599,0.04233 0.316088,0.127 0.08749,0.08467 0.129822,0.186266 0.129822,0.307622 0,0.121355 -0.04233,0.225777 -0.127,0.310444 z m 4.969932,-1.704621 v 1.109132 h -0.733778 z m 0.206022,1.312332 h 0.242711 v -0.2032 h -0.242711 l -0.0028,-1.323621 h -0.276577 l -1.010355,1.526821 h 1.083733 v 0.392289 h 0.206022 z"
         id="text7"
         style="font-size:2.82222px;font-family:'Glacial Indifference';-inkscape-font-specification:'Glacial Indifference';fill:#3b3937;stroke-linejoin:bevel;paint-order:stroke fill markers"
         aria-label="1   3  -  0   9  -  2   0   2   4" /><path
         id="text9"
         style="font-style:normal;font-variant:normal;font-weight:normal;font-stretch:normal;font-size:63.9639px;font-family:'Noto Serif Display';-inkscape-font-specification:'Noto Serif Display';fill:#3b3937;fill-opacity:1;stroke:none;stroke-width:1;stroke-linejoin:bevel;stroke-dasharray:none;stroke-opacity:1;paint-order:stroke fill markers"
         d="m 60.295314,17.883922 c -4.520106,0 -8.293936,0.981103 -11.321555,2.942659 -2.984976,1.918913 -5.223733,4.626475 -6.71622,8.123161 -1.449846,3.496687 -2.174728,7.611941 -2.174728,12.34526 0,4.73332 0.724882,8.869721 2.174728,12.409049 0.866212,2.054162 1.991718,3.834006 3.360663,5.356707 h 4.782562 c 0,0 -0.100107,-0.157078 -0.147603,-0.23947 -2.046841,-3.624615 -3.070564,-9.445704 -3.070564,-17.462497 0,-8.016793 1.044923,-13.816213 3.134406,-17.398184 2.089483,-3.624613 5.415563,-5.436704 9.978311,-5.436704 4.520108,0 7.803786,1.812091 9.850627,5.436704 2.046841,3.581971 3.070053,9.381391 3.070053,17.398184 0,8.016793 -1.023212,13.837882 -3.070053,17.462497 -0.04653,0.0824 -0.14505,0.23947 -0.14505,0.23947 h 4.545579 c 1.374658,-1.509821 2.514324,-3.268585 3.403055,-5.292918 1.577773,-3.539328 2.366765,-7.675729 2.366765,-12.409049 0,-4.733319 -0.788992,-8.84805 -2.366765,-12.344737 -1.53513,-3.539328 -3.795087,-6.26856 -6.780063,-8.187473 -2.942333,-1.961556 -6.567253,-2.942659 -10.874148,-2.942659 z"
         transform="scale(1.0117969,0.98834065)" /></g></g></svg>
